<svg xmlns="http://www.w3.org/2000/svg" width="67" height="67" viewBox="0 0 67 67">
    <g transform="translate(-1461 -100)">
        <circle cx="33.5" cy="33.5" r="33.5" fill="#e5a930" transform="translate(1461 100)"/>
        <g>
            <g>
                <path fill="#fff" d="M29.127 3.38A3.208 3.208 0 0 0 28.29.92a3.219 3.219 0 0 0-2.467-.846 8 8 0 0 0-5.3 2.654L18.134 5.5l-2.463-.411 1.155-1.155a.853.853 0 1 0-1.207-1.207L13.6 4.748 11.533 4.4 12.6 3.335a.853.853 0 0 0-1.2-1.208L9.465 4.059 3.691 3.1a.853.853 0 0 0-.744.238L1.741 4.542a.854.854 0 0 0 .189 1.35l10.731 5.963L7.619 17.7l-5.4-1.058a.853.853 0 0 0-.768.234L.25 18.087a.854.854 0 0 0 .17 1.339l5.961 3.511 3.509 5.849a.853.853 0 0 0 1.335.164l1.207-1.207a.854.854 0 0 0 .233-.771l-1.057-5.285 5.792-5.061 5.922 10.662a.853.853 0 0 0 1.349.189l1.207-1.207a.853.853 0 0 0 .238-.744l-.962-5.775 1.931-1.931a.853.853 0 1 0-1.207-1.207l-1.069 1.069-.345-2.069L26.48 13.6a.853.853 0 0 0-1.207-1.207l-1.155 1.155-.406-2.436 2.768-2.424a8.008 8.008 0 0 0 2.647-5.308zM3.748 4.949l.1-.1L16.83 7.017l-3.03 3.517zm20.611 20.424l-.1.1-5.55-9.992 3.489-3.05zm1-17.973L10.111 20.728a.854.854 0 0 0-.275.81L10.9 26.86l-.111.111-3.058-5.1a.853.853 0 0 0-.3-.3l-5.2-3.062.106-.106 5.436 1.066a.853.853 0 0 0 .811-.28L21.818 3.844a6.351 6.351 0 0 1 4.066-2.064 1.636 1.636 0 0 1 1.2.347 1.634 1.634 0 0 1 .338 1.191A6.365 6.365 0 0 1 25.36 7.4zm-1.292-3.462L22.86 5.145a.853.853 0 1 0 1.207 1.207l1.207-1.207a.853.853 0 0 0-1.207-1.207z" transform="translate(1480.42 119.42) translate(0 -.071)"/>
            </g>
        </g>
    </g>
</svg>
